<?xml version="1.0" encoding="UTF-8" standalone="no"?>
<!DOCTYPE svg PUBLIC "-//W3C//DTD SVG 1.1//EN" "http://www.w3.org/Graphics/SVG/1.1/DTD/svg11.dtd">
<svg xmlns="http://www.w3.org/2000/svg" version="1.1" viewBox="0 0 1168 880" width="1168.0pt" height="880.0pt" xmlns:xlink="http://www.w3.org/1999/xlink">
<defs>
<path d="M 0.00 0.00 L 1168.00 0.00 L 1168.00 880.00 L 0.00 880.00 L 0.00 0.00 Z M 710.65 238.98 C 711.62 240.76 711.51 242.77 714.11 242.60 C 721.18 241.58 728.01 238.53 735.01 236.94 C 732.49 244.66 728.62 251.70 725.03 259.03 C 720.23 268.47 715.08 278.17 708.66 286.61 C 703.76 293.25 698.78 300.10 693.07 306.06 C 689.28 310.16 685.41 314.60 681.05 318.09 C 672.77 324.32 663.86 329.58 654.09 333.12 C 645.74 336.67 636.96 337.92 627.99 338.69 C 623.17 339.08 618.06 338.50 613.33 339.46 C 606.96 341.05 601.23 346.10 595.90 349.85 C 584.53 358.40 573.46 366.24 559.80 370.82 C 540.90 377.60 520.59 379.70 500.72 376.70 C 503.74 379.20 506.71 381.75 509.50 384.51 C 525.13 398.88 541.11 410.79 555.47 426.52 C 559.54 431.29 562.64 436.67 563.40 443.00 C 564.11 448.59 563.70 454.37 563.78 460.00 C 563.59 476.47 563.78 492.94 563.56 509.41 C 563.26 516.01 562.80 523.29 560.31 529.48 C 556.74 538.44 551.29 546.59 543.86 552.81 C 536.23 559.59 527.70 562.76 519.05 568.07 C 512.10 571.98 505.30 576.00 499.17 581.15 C 485.98 592.29 475.18 606.63 468.67 622.66 C 465.58 629.14 463.70 636.11 463.73 643.32 C 459.49 643.27 455.26 643.29 451.02 643.14 C 450.71 628.14 451.11 612.72 454.29 598.01 C 456.12 588.12 459.25 578.69 462.48 569.20 C 469.53 550.42 480.03 533.21 492.79 517.78 C 501.33 508.00 510.19 498.55 520.04 490.08 C 528.07 482.50 537.74 476.20 545.05 468.02 C 552.78 458.85 553.85 442.76 545.19 433.82 C 539.61 427.77 532.89 422.74 526.82 417.18 C 518.45 409.45 510.27 401.78 502.77 393.23 C 485.71 375.03 471.96 353.63 462.56 330.52 C 456.44 314.31 452.82 297.26 451.57 279.98 C 450.64 269.59 451.04 259.26 451.20 248.85 C 465.43 249.56 479.74 248.80 494.00 249.17 C 502.69 249.49 511.32 248.51 520.00 249.11 C 535.66 249.33 551.34 249.03 567.00 249.21 C 572.03 249.25 576.96 248.58 582.00 248.85 C 597.71 249.98 613.24 248.08 628.99 249.08 C 632.68 249.35 636.31 248.92 640.00 248.83 C 651.67 248.78 663.33 248.86 675.00 248.76 C 678.21 248.69 681.41 248.66 684.61 249.00 C 684.41 269.50 685.41 290.76 678.00 310.29 C 680.80 308.36 683.90 306.71 686.47 304.48 C 688.42 297.25 689.18 289.46 690.07 282.01 C 690.78 269.02 690.71 255.95 690.68 242.95 C 687.12 242.77 683.56 242.80 680.00 242.81 C 612.40 242.81 544.52 242.89 477.00 242.84 C 466.45 243.00 455.90 242.72 445.36 243.04 C 444.87 263.28 444.54 283.07 448.88 302.98 C 455.69 340.63 476.60 374.85 502.74 402.27 C 509.05 409.12 515.86 415.05 522.61 421.38 C 528.11 426.48 534.24 431.19 539.42 436.57 C 542.68 440.11 545.54 445.06 545.43 450.00 C 545.37 455.43 543.88 461.03 540.02 465.01 C 536.47 468.77 532.22 471.92 528.29 475.28 C 520.55 481.50 513.08 488.04 506.04 495.05 C 482.64 517.22 464.41 544.46 454.36 575.20 C 449.81 588.71 446.91 602.82 445.65 617.02 C 444.89 627.72 445.35 638.54 445.20 649.26 C 522.92 649.32 601.27 649.29 679.00 649.22 C 682.71 649.33 686.39 649.25 690.09 648.82 C 691.21 628.10 689.81 606.56 684.45 586.47 C 681.57 575.92 678.01 565.60 673.28 555.73 C 667.69 545.11 662.14 534.73 654.78 525.20 C 643.12 508.98 628.48 494.66 613.47 481.55 C 607.49 475.94 599.78 470.88 594.47 464.53 C 589.95 458.95 589.41 451.86 591.10 445.09 C 592.95 439.84 597.60 435.34 601.67 431.69 C 610.40 424.43 618.60 416.62 626.90 408.91 C 644.84 390.74 660.59 370.09 672.77 347.64 C 669.02 349.55 664.52 351.47 661.67 354.65 C 657.93 359.69 655.25 365.44 651.47 370.48 C 638.08 389.85 621.82 406.68 604.00 421.99 C 598.39 427.39 591.38 432.73 587.39 439.40 C 584.08 444.63 583.76 451.58 584.54 457.55 C 585.76 465.03 590.88 469.98 596.42 474.62 C 615.92 491.07 634.71 507.39 649.77 528.25 C 657.42 538.84 664.41 549.51 669.37 561.65 C 677.11 577.51 680.90 594.80 683.33 612.17 C 684.37 622.44 684.35 632.94 684.14 643.26 C 680.03 643.23 675.92 643.17 671.82 643.08 C 669.88 624.88 661.22 608.37 649.18 594.82 C 641.24 585.42 631.58 577.40 621.23 570.78 C 612.72 564.94 603.39 561.14 595.00 554.99 C 587.15 549.44 580.29 542.64 576.17 533.84 C 572.72 526.89 572.04 518.64 571.85 511.00 C 571.62 492.67 571.92 474.33 571.80 456.00 C 571.78 449.10 571.35 441.66 574.20 435.20 C 576.68 429.00 581.79 424.06 586.45 419.44 C 592.05 413.71 597.82 408.16 603.56 402.58 C 617.89 387.74 631.81 372.92 648.07 360.11 C 658.73 351.79 668.87 342.88 679.29 334.27 C 689.32 325.56 698.21 315.67 705.75 304.73 C 716.09 291.42 723.37 277.16 731.46 262.50 C 734.15 257.13 736.79 251.72 739.20 246.22 C 739.74 244.96 740.49 243.83 741.33 242.75 C 743.44 250.34 745.16 258.08 747.42 265.62 C 748.88 268.46 750.98 267.16 753.03 265.88 C 751.48 255.87 749.10 246.03 747.75 235.98 C 746.98 232.08 746.99 227.95 745.41 224.42 C 738.20 227.69 730.85 230.53 723.54 233.54 C 719.07 235.37 714.61 236.01 710.65 238.98 Z" id="p0" />
<path d="M 745.41 224.42 C 746.99 227.95 746.98 232.08 747.75 235.98 C 749.10 246.03 751.48 255.87 753.03 265.88 C 750.98 267.16 748.88 268.46 747.42 265.62 C 745.16 258.08 743.44 250.34 741.33 242.75 C 740.49 243.83 739.74 244.96 739.20 246.22 C 736.79 251.72 734.15 257.13 731.46 262.50 C 723.37 277.16 716.09 291.42 705.75 304.73 C 698.21 315.67 689.32 325.56 679.29 334.27 C 668.87 342.88 658.73 351.79 648.07 360.11 C 631.81 372.92 617.89 387.74 603.56 402.58 C 597.82 408.16 592.05 413.71 586.45 419.44 C 581.79 424.06 576.68 429.00 574.20 435.20 C 571.35 441.66 571.78 449.10 571.80 456.00 C 571.92 474.33 571.62 492.67 571.85 511.00 C 572.04 518.64 572.72 526.89 576.17 533.84 C 580.29 542.64 587.15 549.44 595.00 554.99 C 603.39 561.14 612.72 564.94 621.23 570.78 C 631.58 577.40 641.24 585.42 649.18 594.82 C 661.22 608.37 669.88 624.88 671.82 643.08 C 675.92 643.17 680.03 643.23 684.14 643.26 C 684.35 632.94 684.37 622.44 683.33 612.17 C 680.90 594.80 677.11 577.51 669.37 561.65 C 664.41 549.51 657.42 538.84 649.77 528.25 C 634.71 507.39 615.92 491.07 596.42 474.62 C 590.88 469.98 585.76 465.03 584.54 457.55 C 583.76 451.58 584.08 444.63 587.39 439.40 C 591.38 432.73 598.39 427.39 604.00 421.99 C 621.82 406.68 638.08 389.85 651.47 370.48 C 655.25 365.44 657.93 359.69 661.67 354.65 C 664.52 351.47 669.02 349.55 672.77 347.64 C 660.59 370.09 644.84 390.74 626.90 408.91 C 618.60 416.62 610.40 424.43 601.67 431.69 C 597.60 435.34 592.95 439.84 591.10 445.09 C 589.41 451.86 589.95 458.95 594.47 464.53 C 599.78 470.88 607.49 475.94 613.47 481.55 C 628.48 494.66 643.12 508.98 654.78 525.20 C 662.14 534.73 667.69 545.11 673.28 555.73 C 678.01 565.60 681.57 575.92 684.45 586.47 C 689.81 606.56 691.21 628.10 690.09 648.82 C 686.39 649.25 682.71 649.33 679.00 649.22 C 601.27 649.29 522.92 649.32 445.20 649.26 C 445.35 638.54 444.89 627.72 445.65 617.02 C 446.91 602.82 449.81 588.71 454.36 575.20 C 464.41 544.46 482.64 517.22 506.04 495.05 C 513.08 488.04 520.55 481.50 528.29 475.28 C 532.22 471.92 536.47 468.77 540.02 465.01 C 543.88 461.03 545.37 455.43 545.43 450.00 C 545.54 445.06 542.68 440.11 539.42 436.57 C 534.24 431.19 528.11 426.48 522.61 421.38 C 515.86 415.05 509.05 409.12 502.74 402.27 C 476.60 374.85 455.69 340.63 448.88 302.98 C 444.54 283.07 444.87 263.28 445.36 243.04 C 455.90 242.72 466.45 243.00 477.00 242.84 C 544.52 242.89 612.40 242.81 680.00 242.81 C 683.56 242.80 687.12 242.77 690.68 242.95 C 690.71 255.95 690.78 269.02 690.07 282.01 C 689.18 289.46 688.42 297.25 686.47 304.48 C 683.90 306.71 680.80 308.36 678.00 310.29 C 685.41 290.76 684.41 269.50 684.61 249.00 C 681.41 248.66 678.21 248.69 675.00 248.76 C 663.33 248.86 651.67 248.78 640.00 248.83 C 636.31 248.92 632.68 249.35 628.99 249.08 C 613.24 248.08 597.71 249.98 582.00 248.85 C 576.96 248.58 572.03 249.25 567.00 249.21 C 551.34 249.03 535.66 249.33 520.00 249.11 C 511.32 248.51 502.69 249.49 494.00 249.17 C 479.74 248.80 465.43 249.56 451.20 248.85 C 451.04 259.26 450.64 269.59 451.57 279.98 C 452.82 297.26 456.44 314.31 462.56 330.52 C 471.96 353.63 485.71 375.03 502.77 393.23 C 510.27 401.78 518.45 409.45 526.82 417.18 C 532.89 422.74 539.61 427.77 545.19 433.82 C 553.85 442.76 552.78 458.85 545.05 468.02 C 537.74 476.20 528.07 482.50 520.04 490.08 C 510.19 498.55 501.33 508.00 492.79 517.78 C 480.03 533.21 469.53 550.42 462.48 569.20 C 459.25 578.69 456.12 588.12 454.29 598.01 C 451.11 612.72 450.71 628.14 451.02 643.14 C 455.26 643.29 459.49 643.27 463.73 643.32 C 463.70 636.11 465.58 629.14 468.67 622.66 C 475.18 606.63 485.98 592.29 499.17 581.15 C 505.30 576.00 512.10 571.98 519.05 568.07 C 527.70 562.76 536.23 559.59 543.86 552.81 C 551.29 546.59 556.74 538.44 560.31 529.48 C 562.80 523.29 563.26 516.01 563.56 509.41 C 563.78 492.94 563.59 476.47 563.78 460.00 C 563.70 454.37 564.11 448.59 563.40 443.00 C 562.64 436.67 559.54 431.29 555.47 426.52 C 541.11 410.79 525.13 398.88 509.50 384.51 C 506.71 381.75 503.74 379.20 500.72 376.70 C 520.59 379.70 540.90 377.60 559.80 370.82 C 573.46 366.24 584.53 358.40 595.90 349.85 C 601.23 346.10 606.96 341.05 613.33 339.46 C 618.06 338.50 623.17 339.08 627.99 338.69 C 636.96 337.92 645.74 336.67 654.09 333.12 C 663.86 329.58 672.77 324.32 681.05 318.09 C 685.41 314.60 689.28 310.16 693.07 306.06 C 698.78 300.10 703.76 293.25 708.66 286.61 C 715.08 278.17 720.23 268.47 725.03 259.03 C 728.62 251.70 732.49 244.66 735.01 236.94 C 728.01 238.53 721.18 241.58 714.11 242.60 C 711.51 242.77 711.62 240.76 710.65 238.98 C 714.61 236.01 719.07 235.37 723.54 233.54 C 730.85 230.53 738.20 227.69 745.41 224.42 Z" id="p1" />
</defs>
<g stroke-width="10pt">
<use stroke="#15273a" xlink:href="#p0" />
<use stroke="#bfa07d" xlink:href="#p1" />
</g>
<g>
<use fill="#15273a" xlink:href="#p0" />
<use fill="#bfa07d" xlink:href="#p1" />
</g>
</svg>