<svg xmlns="http://www.w3.org/2000/svg" version="1.1" viewBox="245 130 680 620" xmlns:xlink="http://www.w3.org/1999/xlink">
<defs>
<path id="hourglass" d="M 745.41 224.42 C 746.99 227.95 746.98 232.08 747.75 235.98 C 749.10 246.03 751.48 255.87 753.03 265.88 C 750.98 267.16 748.88 268.46 747.42 265.62 C 745.16 258.08 743.44 250.34 741.33 242.75 C 740.49 243.83 739.74 244.96 739.20 246.22 C 736.79 251.72 734.15 257.13 731.46 262.50 C 723.37 277.16 716.09 291.42 705.75 304.73 C 698.21 315.67 689.32 325.56 679.29 334.27 C 668.87 342.88 658.73 351.79 648.07 360.11 C 631.81 372.92 617.89 387.74 603.56 402.58 C 597.82 408.16 592.05 413.71 586.45 419.44 C 581.79 424.06 576.68 429.00 574.20 435.20 C 571.35 441.66 571.78 449.10 571.80 456.00 C 571.92 474.33 571.62 492.67 571.85 511.00 C 572.04 518.64 572.72 526.89 576.17 533.84 C 580.29 542.64 587.15 549.44 595.00 554.99 C 603.39 561.14 612.72 564.94 621.23 570.78 C 631.58 577.40 641.24 585.42 649.18 594.82 C 661.22 608.37 669.88 624.88 671.82 643.08 C 675.92 643.17 680.03 643.23 684.14 643.26 C 684.35 632.94 684.37 622.44 683.33 612.17 C 680.90 594.80 677.11 577.51 669.37 561.65 C 664.41 549.51 657.42 538.84 649.77 528.25 C 634.71 507.39 615.92 491.07 596.42 474.62 C 590.88 469.98 585.76 465.03 584.54 457.55 C 583.76 451.58 584.08 444.63 587.39 439.40 C 591.38 432.73 598.39 427.39 604.00 421.99 C 621.82 406.68 638.08 389.85 651.47 370.48 C 655.25 365.44 657.93 359.69 661.67 354.65 C 664.52 351.47 669.02 349.55 672.77 347.64 C 660.59 370.09 644.84 390.74 626.90 408.91 C 618.60 416.62 610.40 424.43 601.67 431.69 C 597.60 435.34 592.95 439.84 591.10 445.09 C 589.41 451.86 589.95 458.95 594.47 464.53 C 599.78 470.88 607.49 475.94 613.47 481.55 C 628.48 494.66 643.12 508.98 654.78 525.20 C 662.14 534.73 667.69 545.11 673.28 555.73 C 678.01 565.60 681.57 575.92 684.45 586.47 C 689.81 606.56 691.21 628.10 690.09 648.82 C 686.39 649.25 682.71 649.33 679.00 649.22 C 601.27 649.29 522.92 649.32 445.20 649.26 C 445.35 638.54 444.89 627.72 445.65 617.02 C 446.91 602.82 449.81 588.71 454.36 575.20 C 464.41 544.46 482.64 517.22 506.04 495.05 C 513.08 488.04 520.55 481.50 528.29 475.25 C 540.57 465.30 553.38 455.79 564.01 444.07 C 569.49 438.48 571.53 430.21 571.71 422.79 C 571.97 408.53 571.74 394.26 571.83 380.00 C 572.00 372.23 571.21 363.77 574.18 356.40 C 577.78 348.30 583.86 341.51 590.70 336.02 C 599.15 329.34 608.96 324.13 618.29 318.72 C 631.65 311.58 644.33 302.74 655.20 292.09 C 669.96 278.30 682.41 262.27 694.08 245.72 C 700.64 237.00 706.71 227.88 712.57 218.67 C 723.74 201.52 735.55 183.65 741.50 163.66 C 742.55 160.06 743.65 156.47 745.41 153.18 C 747.16 156.34 747.27 160.11 747.87 163.69 C 748.73 169.16 749.87 174.54 750.76 180.00 C 753.50 194.47 756.05 209.13 760.60 223.18 C 755.50 223.62 750.41 223.89 745.41 224.42 Z M 710.65 238.98 C 711.62 240.76 711.51 242.77 714.11 242.60 C 721.18 241.58 728.01 238.53 735.01 236.94 C 732.49 244.66 728.62 251.70 725.03 259.03 C 720.23 268.47 715.08 278.17 708.66 286.61 C 703.76 293.25 698.78 300.10 693.07 306.06 C 689.28 310.16 685.41 314.60 681.05 318.09 C 672.77 324.32 663.86 329.58 654.09 333.12 C 645.74 336.67 636.96 337.92 627.99 338.69 C 623.17 339.08 618.06 338.50 613.33 339.46 C 606.96 341.05 601.23 346.10 595.90 349.85 C 584.53 358.40 573.46 366.24 559.80 370.82 C 540.90 377.60 520.59 379.70 500.72 376.70 C 503.74 379.20 506.71 381.75 509.50 384.51 C 525.13 398.88 541.11 410.79 555.47 426.52 C 559.54 431.29 562.64 436.67 563.40 443.00 C 564.11 448.59 563.70 454.37 563.78 460.00 C 563.59 476.47 563.78 492.94 563.56 509.41 C 563.26 516.01 562.80 523.29 560.31 529.48 C 556.74 538.44 551.29 546.59 543.86 552.81 C 536.23 559.59 527.70 562.76 519.05 568.07 C 512.10 571.98 505.30 576.00 499.17 581.15 C 485.98 592.29 475.18 606.63 468.67 622.66 C 465.58 629.14 463.70 636.11 463.73 643.32 C 459.49 643.27 455.26 643.29 451.02 643.14 C 450.71 628.14 451.11 612.72 454.29 598.01 C 456.12 588.12 459.25 578.69 462.48 569.20 C 469.53 550.42 480.03 533.21 492.79 517.78 C 501.33 508.00 510.19 498.55 520.04 490.08 C 528.07 482.50 537.74 476.20 545.05 468.02 C 552.78 458.85 553.85 442.76 545.19 433.82 C 539.61 427.77 532.89 422.74 526.82 417.18 C 518.45 409.45 510.27 401.78 502.77 393.23 C 485.71 375.03 471.96 353.63 462.56 330.52 C 456.44 314.31 452.82 297.26 451.57 279.98 C 450.64 269.59 451.04 259.26 451.20 248.85 C 465.43 249.56 479.74 248.80 494.00 249.17 C 502.69 249.49 511.32 248.51 520.00 249.11 C 535.66 249.33 551.34 249.03 567.00 249.21 C 572.03 249.25 576.96 248.58 582.00 248.85 C 597.71 249.98 613.24 248.08 628.99 249.08 C 632.68 249.35 636.31 248.92 640.00 248.83 C 651.67 248.78 663.33 248.86 675.00 248.76 C 678.21 248.69 681.41 248.66 684.61 249.00 C 684.41 264.64 683.88 280.44 687.06 295.81 C 688.90 305.52 692.00 314.89 696.08 323.85 C 700.93 333.42 708.47 341.56 717.61 347.50 C 727.39 353.37 738.13 357.84 749.08 361.31 C 744.07 358.11 739.07 354.81 734.47 351.07 C 724.84 343.57 715.84 334.76 709.04 324.15 C 699.83 309.12 695.63 291.51 694.11 274.02 C 693.63 262.27 693.83 250.51 694.05 238.75 C 699.59 238.81 705.12 238.88 710.65 238.98 Z"/>
</defs>
<use fill="#bfa07d" xlink:href="#hourglass"/>
</svg>
